<?xml version="1.0" standalone="no"?>
<!DOCTYPE svg PUBLIC "-//W3C//DTD SVG 20010904//EN"
 "http://www.w3.org/TR/2001/REC-SVG-20010904/DTD/svg10.dtd">
<svg version="1.0" xmlns="http://www.w3.org/2000/svg"
 width="1000.000000pt" height="1000.000000pt" viewBox="0 0 1000.000000 1000.000000"
 preserveAspectRatio="xMidYMid meet">
<metadata>
Created by potrace 1.11, written by Peter Selinger 2001-2013
</metadata>
<g transform="translate(0.000000,1000.000000) scale(0.100000,-0.100000)"
fill="#000000" stroke="none">
<path d="M4155 6544 c-26 -4 -118 -20 -165 -29 -221 -45 -529 -173 -790 -329
-51 -31 -94 -56 -96 -56 -4 0 -281 -182 -309 -202 -207 -152 -406 -333 -496
-454 -23 -29 -49 -54 -58 -55 -9 0 -233 -1 -497 -1 -366 -1 -489 -4 -512 -14
-45 -18 -66 -57 -66 -120 0 -58 24 -97 73 -115 13 -5 286 -9 628 -9 665 0 656
1 687 -61 20 -40 20 -72 1 -109 -29 -57 -47 -60 -342 -60 -248 0 -270 -2 -300
-20 -75 -45 -79 -150 -7 -197 26 -17 82 -18 1118 -18 l1091 0 33 -23 c63 -45
63 -139 -1 -185 l-32 -22 -1615 0 c-1283 -1 -1620 -4 -1638 -14 -31 -17 -62
-70 -62 -106 1 -39 20 -72 56 -96 28 -18 54 -19 709 -19 l681 0 28 -66 c84
-192 224 -271 482 -274 41 0 41 0 78 -74 75 -152 213 -262 377 -300 267 -63
542 75 653 327 l23 52 962 1 c690 1 961 -2 961 -10 0 -6 15 -39 33 -73 146
-281 481 -390 767 -251 95 47 206 160 254 260 l37 76 678 -1 c374 -1 677 -5
675 -9 -2 -4 0 -9 6 -13 5 -3 10 0 10 7 0 10 17 14 64 13 35 0 62 -3 60 -7 -2
-4 0 -9 6 -13 5 -3 10 1 10 9 0 9 5 16 10 16 12 0 -4 -35 -20 -45 -6 -4 -7
-11 -4 -17 5 -7 2 -8 -6 -3 -9 6 -11 4 -5 -5 6 -9 4 -11 -5 -5 -9 5 -11 4 -6
-3 4 -7 2 -10 -6 -9 -7 2 -10 2 -5 0 4 -3 4 -9 1 -14 -3 -6 -12 -2 -21 8 -8
10 -12 12 -8 6 4 -9 1 -11 -9 -7 -10 4 -16 1 -16 -7 0 -7 3 -9 6 -6 10 10 42
-11 55 -34 7 -13 7 -19 1 -15 -6 3 -14 1 -17 -5 -4 -5 -13 -8 -21 -5 -8 3 -13
2 -13 -2 3 -20 -3 -23 -18 -11 -9 8 -14 9 -10 3 3 -6 0 -11 -8 -11 -8 0 -15 4
-15 9 0 4 5 8 12 8 6 0 8 3 4 7 -4 5 -13 0 -21 -10 -11 -15 -12 -13 -11 22 1
22 6 44 11 48 4 5 5 2 0 -6 -6 -10 -4 -12 4 -7 7 5 10 10 7 13 -3 3 3 13 12
22 10 9 11 12 3 6 -11 -8 -13 -7 -6 4 6 10 4 12 -5 6 -9 -6 -11 -4 -5 5 6 9 4
11 -6 5 -11 -7 -11 -5 1 11 14 18 14 18 -2 5 -10 -7 -15 -18 -11 -25 4 -6 -1
-5 -10 3 -10 7 -17 9 -17 3 0 -6 3 -12 8 -15 4 -2 2 -2 -5 -1 -6 2 -17 -5 -25
-14 -12 -16 -11 -16 7 -2 19 14 19 14 5 -4 -13 -18 -13 -19 0 -11 13 8 13 7 1
-8 -7 -9 -10 -17 -6 -17 4 0 1 -8 -6 -17 -8 -9 -9 -14 -2 -10 8 5 10 -2 8 -20
-3 -25 -2 -26 11 -8 8 10 14 14 14 8 0 -6 -7 -16 -15 -23 -19 -16 -20 -34 -1
-27 11 4 13 1 9 -10 -5 -14 -9 -13 -25 7 -11 13 -18 17 -18 9 0 -11 -2 -11
-10 1 -9 13 -10 13 -10 0 0 -12 -2 -12 -9 -2 -7 11 -9 10 -15 -3 -3 -9 -10
-14 -15 -10 -5 3 -12 1 -16 -5 -4 -6 -10 -8 -14 -5 -5 2 -7 -7 -5 -20 1 -15
-2 -23 -8 -19 -6 4 -6 -2 1 -14 17 -32 29 -35 57 -13 15 12 21 21 13 21 -8 0
-6 6 7 15 16 13 16 14 2 9 -10 -3 -18 -1 -18 4 0 6 9 9 20 7 13 -3 18 0 14 7
-4 7 -2 8 5 4 6 -4 9 -12 6 -17 -4 -5 -1 -9 4 -9 15 0 14 13 -1 31 -8 9 -6 8
5 -2 10 -8 20 -29 23 -45 3 -19 1 -24 -4 -16 -7 11 -10 10 -16 -3 -3 -9 -10
-14 -15 -10 -5 3 -12 1 -16 -5 -3 -5 -12 -10 -18 -10 -7 0 -6 4 3 11 13 9 13
10 0 6 -8 -2 -14 -10 -12 -16 1 -7 -2 -9 -9 -5 -8 5 -9 3 -4 -6 5 -9 4 -11 -4
-6 -6 4 -18 3 -25 -3 -10 -8 -18 -6 -31 9 -14 15 -21 17 -31 9 -8 -6 -12 -14
-9 -18 5 -9 -72 -7 -82 2 -3 4 -1 7 6 7 7 0 9 5 5 12 -5 7 -11 5 -21 -7 -8
-12 -13 -14 -13 -6 0 7 -6 11 -15 8 -8 -4 -17 -1 -21 5 -4 6 -3 8 3 5 15 -9
47 18 39 32 -5 7 -15 10 -23 7 -8 -3 -11 -2 -8 3 3 5 1 12 -5 16 -6 4 -8 10
-5 15 3 5 1 11 -4 15 -6 3 -8 -3 -6 -15 4 -19 -9 -28 -18 -12 -2 4 -2 2 -1 -5
4 -16 -13 -26 -21 -13 -4 6 -11 7 -17 4 -7 -5 -8 -2 -3 6 5 9 4 11 -3 6 -7 -4
-12 -1 -12 6 0 10 -3 9 -11 -2 -9 -13 -10 -13 -6 2 8 23 -3 30 -22 15 -14 -11
-15 -10 -1 7 13 16 12 20 -5 32 -10 8 -14 14 -9 14 6 0 11 7 11 16 0 14 -2 14
-11 3 -10 -13 -19 -15 -42 -10 -4 0 -2 7 5 14 7 9 7 18 1 25 -7 9 -7 9 2 2 20
-17 25 -11 24 24 0 19 -3 32 -5 30 -2 -2 -10 1 -17 7 -8 7 -14 7 -19 -1 -3 -5
1 -10 9 -10 9 0 16 -4 16 -8 0 -19 -26 -7 -50 22 -13 17 -17 25 -7 17 10 -8
17 -9 17 -3 0 6 -6 12 -12 15 -10 3 -10 7 1 20 9 11 10 17 2 17 -6 0 -11 -6
-11 -12 0 -10 -2 -10 -9 0 -7 11 -9 10 -14 -3 -4 -10 -3 -14 3 -10 7 4 9 -3 6
-19 -3 -14 0 -26 5 -26 6 0 7 -4 4 -10 -3 -5 0 -20 7 -32 7 -13 11 -26 10 -29
0 -4 9 -18 22 -32 13 -14 21 -28 18 -31 -9 -10 37 -48 49 -41 6 4 9 -1 7 -11
-2 -11 2 -18 9 -17 7 2 17 -6 23 -17 6 -11 15 -18 19 -15 5 2 14 -2 21 -10 7
-8 16 -12 21 -9 5 3 16 -1 24 -10 8 -8 24 -13 35 -11 11 2 20 1 20 -3 0 -4 10
-9 23 -10 12 -1 39 -4 60 -6 20 -2 39 0 42 4 3 5 15 6 27 2 14 -3 19 -2 14 6
-4 7 -3 12 3 12 5 0 12 -6 14 -12 4 -10 6 -10 6 0 1 7 6 10 11 7 6 -4 17 -1
25 5 8 7 15 9 15 5 0 -5 9 0 20 10 11 10 20 14 20 9 1 -5 10 2 20 15 11 13 20
19 20 15 1 -5 9 1 19 13 10 12 20 21 22 20 2 -1 3 0 1 2 -1 3 8 11 20 18 13 7
17 12 10 13 -7 0 -10 5 -7 10 4 6 10 8 15 5 11 -7 32 30 23 39 -3 3 -2 6 4 6
5 0 15 11 21 25 16 34 15 38 -4 31 -8 -3 -12 -2 -9 4 3 6 13 10 21 10 8 0 14
6 15 13 4 54 7 68 18 81 7 9 16 15 19 14 12 -3 85 12 137 29 121 38 252 120
342 214 90 96 168 248 197 386 18 85 18 244 -1 326 -65 281 -281 515 -547 592
-32 10 -207 100 -399 207 -188 105 -364 203 -392 218 -86 47 -148 82 -215 120
-383 221 -938 418 -1366 486 -22 3 -41 7 -44 9 -3 2 -37 6 -75 10 -39 4 -72 9
-75 10 -3 2 -44 7 -90 10 -47 4 -107 11 -135 15 -48 8 -1580 11 -1640 4z
m1735 -188 c25 -3 68 -8 95 -12 28 -3 64 -7 80 -9 137 -16 403 -80 584 -141
196 -66 487 -199 601 -273 14 -9 42 -26 64 -36 57 -29 106 -80 108 -112 4 -77
-22 -132 -74 -154 -25 -10 -218 -13 -952 -14 -507 0 -946 3 -976 8 -139 19
-246 112 -385 331 -100 157 -114 291 -39 357 67 59 135 67 519 63 182 -1 350
-5 375 -8z m-1403 -79 c38 -20 90 -79 110 -126 8 -20 19 -43 23 -52 13 -25 40
-170 44 -229 6 -102 -34 -210 -91 -248 -23 -14 -73 -16 -447 -17 -231 0 -433
3 -447 8 -48 15 -74 118 -45 179 17 36 232 260 324 338 102 86 206 139 307
157 17 3 32 7 34 9 10 10 162 -6 188 -19z m1873 -992 c252 -29 295 -36 356
-65 33 -16 83 -52 111 -80 115 -115 122 -231 20 -314 -35 -28 -45 -31 -110
-31 -40 0 -106 4 -147 8 -246 26 -272 37 -366 154 -21 26 -41 50 -45 53 -22
20 -70 101 -75 127 -12 63 30 134 92 153 27 8 50 8 164 -5z m2250 -39 c52 -30
140 -99 181 -143 41 -43 99 -122 99 -134 0 -12 -51 -58 -81 -74 -32 -17 -229
-58 -286 -59 -48 -1 -90 32 -118 91 -40 84 0 220 90 307 49 48 52 48 115 12z
m-195 -1407 c-3 -12 -14 -28 -25 -36 -19 -14 -19 -40 1 -28 5 3 6 -1 3 -10 -6
-14 -8 -14 -20 2 -11 16 -9 22 14 46 14 15 22 27 18 27 -4 0 -4 5 -1 10 10 16
14 11 10 -11z m-158 -33 c-8 -8 -14 -28 -12 -44 1 -17 -3 -29 -10 -29 -9 0
-13 36 -6 55 1 1 0 4 -1 7 -4 6 36 34 41 30 2 -2 -3 -11 -12 -19z m-564 -11
c3 -8 14 -12 25 -10 11 2 19 -2 19 -11 0 -10 -4 -11 -13 -3 -8 6 -14 6 -18 0
-4 -5 -2 -12 4 -16 6 -4 8 -11 4 -16 -3 -5 -10 -7 -15 -3 -5 3 -7 9 -4 14 3 5
1 11 -5 15 -6 4 -8 11 -5 16 4 5 1 9 -4 9 -6 0 -11 5 -11 10 0 15 17 12 23 -5z
m674 -70 c0 -8 -4 -15 -9 -15 -5 0 -6 -5 -2 -12 4 -6 3 -8 -4 -4 -6 3 -13 2
-17 -4 -4 -6 -11 -8 -16 -5 -5 4 -9 1 -9 -4 0 -6 5 -11 12 -11 6 0 3 -6 -7
-14 -11 -8 -24 -12 -28 -9 -5 3 -7 -3 -5 -13 2 -10 -2 -19 -9 -19 -7 0 -18 -8
-25 -18 -12 -15 -13 -13 -14 18 -1 19 2 35 6 35 5 0 7 8 5 18 -1 9 -8 16 -16
14 -9 -2 -10 0 -1 11 7 8 28 13 52 12 23 -1 43 2 46 7 3 4 9 6 14 3 4 -3 10 2
14 10 7 19 13 19 13 0z m-597 -47 c0 -11 -15 -17 -26 -10 -6 4 -11 14 -11 24
0 13 4 14 19 5 10 -7 18 -15 18 -19z m404 -17 c-3 -3 -11 -6 -17 -6 -7 0 -12
-13 -12 -28 0 -28 -28 -56 -39 -39 -5 9 0 53 6 56 2 0 12 6 23 12 20 11 49 15
39 5z m-344 -45 c0 5 7 0 15 -10 8 -11 15 -15 15 -8 0 6 9 16 20 22 11 6 20 7
19 3 -1 -4 -1 -15 0 -23 1 -13 2 -13 11 0 5 8 12 11 17 7 9 -10 -17 -28 -29
-20 -5 2 -15 0 -23 -7 -10 -8 -17 -6 -28 10 -8 12 -16 17 -18 11 -2 -6 -10 -1
-18 11 -13 21 -13 22 2 9 10 -7 17 -10 17 -5z m380 -41 c-7 -8 -16 -13 -20
-10 -5 3 -11 1 -15 -5 -3 -5 -11 -10 -18 -10 -6 0 -2 6 8 14 11 8 23 12 27 10
4 -2 9 0 13 6 3 5 9 10 12 10 3 0 0 -7 -7 -15z m-135 -33 c-3 -3 -12 -7 -19
-8 -12 -2 -13 4 -7 35 1 2 8 -2 16 -9 9 -7 13 -15 10 -18z"/>
<path d="M8250 3684 c6 -6 6 -15 2 -19 -4 -5 -1 -5 6 -1 6 4 12 3 12 -3 0 -5
-5 -11 -12 -13 -6 -2 -12 -12 -14 -22 -2 -13 1 -14 10 -7 7 6 15 8 18 5 3 -3
5 3 5 13 -1 9 4 18 12 18 8 0 15 9 16 20 1 17 -5 21 -31 21 -23 0 -30 -4 -24
-12z m44 -11 c4 -11 1 -11 -14 -3 -24 13 -25 17 -5 17 8 0 16 -6 19 -14z"/>
<path d="M8119 3639 c-5 -31 -7 -51 -3 -41 3 6 9 10 14 7 10 -6 7 21 -3 31 -4
4 -7 5 -8 3z"/>
<path d="M7866 3594 c-5 -14 -4 -15 9 -4 17 14 19 20 6 20 -5 0 -12 -7 -15
-16z"/>
<path d="M4330 3882 c0 -7 -4 -11 -9 -7 -6 3 -8 -4 -5 -17 3 -13 6 -33 7 -45
1 -12 3 -21 7 -21 18 2 23 -4 10 -12 -13 -8 -12 -10 3 -10 9 0 17 -5 17 -11 0
-5 -6 -7 -12 -3 -10 6 -10 5 -1 -7 6 -8 11 -17 10 -21 -1 -4 7 -18 18 -30 11
-13 18 -27 17 -33 -2 -5 2 -4 10 3 11 11 10 14 -1 21 -7 5 -9 11 -5 13 5 3 2
3 -6 1 -10 -2 -9 2 4 12 10 8 24 12 30 8 6 -3 8 -3 4 2 -4 4 -2 15 5 23 10 13
9 14 -2 7 -10 -5 -12 -4 -7 3 11 18 29 14 22 -4 -3 -8 -2 -13 3 -9 5 3 8 -6 6
-20 -1 -14 2 -28 7 -31 4 -3 5 -10 2 -16 -4 -6 2 -6 15 1 14 8 21 8 21 1 0 -5
-6 -10 -14 -10 -8 0 -17 -4 -20 -9 -7 -11 13 -9 33 3 10 6 12 5 7 -2 -5 -8 -1
-10 11 -6 14 4 15 3 4 -4 -9 -7 -10 -12 -2 -16 6 -4 11 -3 11 3 0 5 9 8 20 6
13 -3 18 0 14 7 -5 7 -2 8 5 4 7 -5 10 -10 7 -14 -3 -3 2 -11 12 -19 9 -8 12
-12 7 -9 -6 2 -11 -4 -11 -14 0 -10 4 -16 9 -13 5 3 1 -6 -8 -21 -19 -29 -17
-36 12 -41 10 -2 19 -4 21 -5 1 -2 11 -4 22 -5 11 -1 21 -4 23 -5 1 -1 26 -3
55 -5 38 -1 52 1 52 11 0 8 -5 14 -11 14 -5 0 -7 -6 -3 -12 4 -7 -3 -4 -16 7
-13 11 -21 15 -17 10 3 -7 -4 -11 -18 -11 -13 0 -21 4 -18 10 3 5 1 6 -5 2
-10 -6 -17 6 -9 18 1 2 -7 13 -17 25 -19 21 -19 21 0 43 19 22 19 23 -1 8 -18
-14 -19 -14 -7 2 12 15 11 17 -6 13 -10 -2 -30 6 -43 18 -13 12 -20 19 -15 15
14 -11 26 -10 26 3 0 5 -4 8 -9 4 -5 -3 -13 0 -17 6 -4 7 -3 9 4 5 7 -4 10 1
7 14 -2 11 1 20 7 20 5 0 7 -8 4 -17 -5 -15 -4 -15 9 1 11 14 15 16 15 5 0
-12 2 -12 10 1 9 13 10 13 10 0 0 -13 2 -13 9 0 6 8 7 18 4 24 -4 5 0 6 8 1
11 -7 12 -6 2 7 -7 8 -10 18 -7 21 4 4 -3 5 -14 2 -18 -3 -52 21 -44 32 1 1 2
8 2 14 0 8 -5 7 -15 -1 -9 -7 -14 -19 -11 -27 4 -9 1 -11 -7 -7 -9 6 -9 4 -1
-7 17 -23 12 -72 -9 -75 -11 -1 -15 2 -10 9 4 7 1 7 -9 -1 -11 -9 -18 -10 -23
-2 -3 5 -3 10 2 10 4 0 0 5 -9 10 -10 6 -15 19 -13 31 3 17 2 19 -10 9 -8 -7
-12 -16 -9 -21 3 -5 0 -9 -5 -9 -16 0 -13 16 5 30 21 18 41 55 23 45 -8 -5
-10 -4 -5 3 4 6 -3 21 -15 33 -17 17 -18 21 -5 16 12 -5 15 -3 10 6 -5 9 -4 9
7 0 7 -7 17 -13 22 -13 4 0 5 6 1 13 -4 6 2 4 14 -7 12 -10 19 -22 17 -27 -3
-4 -1 -10 4 -14 6 -3 8 4 6 15 -2 11 0 18 5 15 13 -8 20 9 9 25 -6 11 -9 12
-9 2 0 -8 -5 -10 -12 -5 -18 11 -168 11 -168 0 0 -5 7 -7 15 -4 8 4 17 2 20
-3 4 -6 11 -10 16 -10 6 0 7 5 3 12 -4 7 -3 8 5 4 6 -4 8 -12 5 -18 -5 -7 -2
-8 5 -3 10 6 11 3 1 -15 -10 -18 -10 -21 2 -14 9 6 9 2 -2 -12 -14 -18 -14
-18 3 -5 28 22 34 3 7 -22 l-24 -22 19 25 c20 25 20 25 0 9 -11 -9 -27 -19
-35 -23 -9 -5 -8 -2 2 7 10 8 15 17 12 20 -4 3 -14 -2 -23 -11 -10 -11 -12
-12 -6 -2 8 12 6 12 -10 -2 -16 -13 -23 -14 -35 -5 -19 15 -25 41 -8 31 10 -6
11 -4 1 7 -7 7 -13 18 -13 24 0 5 5 3 10 -5 6 -10 10 -11 10 -2 0 6 3 11 8 11
26 -4 31 2 15 19 -10 10 -21 14 -24 9 -9 -13 -20 -11 -30 5 -7 10 -9 10 -9 0z
m55 -24 c3 -3 -5 -5 -17 -4 -19 1 -23 -4 -22 -27 1 -15 -1 -26 -3 -23 -3 2 -4
6 -2 8 1 2 -3 13 -9 24 -6 12 -9 24 -7 26 7 7 53 4 60 -4z m108 -22 c4 -10 1
-13 -9 -9 -15 6 -19 23 -5 23 5 0 11 -7 14 -14z m113 -35 c-5 -8 30 -46 42
-46 4 0 7 -5 8 -11 2 -12 -41 -13 -52 -1 -12 12 -14 67 -3 67 6 0 8 -4 5 -9z
m-106 -4 c0 -2 -10 -12 -22 -23 l-23 -19 19 23 c18 21 26 27 26 19z m-94 -54
c4 4 2 7 -4 7 -7 0 -12 4 -12 8 0 5 6 9 14 9 20 0 13 -25 -12 -43 -12 -8 -22
-14 -23 -12 -1 2 -2 18 -3 36 l-2 33 17 -23 c10 -12 21 -19 25 -15z m109 -31
c10 -13 23 -19 35 -17 11 2 18 0 15 -5 -6 -10 52 -56 66 -53 4 2 6 -7 4 -19
-3 -12 3 -30 12 -40 9 -10 13 -18 8 -18 -4 0 1 -12 11 -27 11 -18 12 -24 3
-17 -8 6 -22 10 -31 9 -9 -2 -15 2 -12 9 2 6 -5 12 -16 13 -12 1 -18 -2 -14
-9 4 -7 2 -8 -4 -4 -9 5 -9 13 0 29 17 31 16 48 -5 80 -14 20 -22 25 -31 18
-9 -8 -19 -4 -36 12 -13 12 -31 22 -39 22 -8 0 -15 9 -16 21 -2 27 30 25 50
-4z"/>
<path d="M4604 3764 c3 -20 33 -28 43 -11 3 7 2 9 -2 4 -5 -4 -16 0 -26 9 -16
14 -17 14 -15 -2z"/>
<path d="M4373 3735 c0 -8 4 -12 9 -9 5 3 6 10 3 15 -9 13 -12 11 -12 -6z"/>
<path d="M4480 3712 c-13 -14 -12 -15 2 -10 10 4 24 -3 38 -17 21 -23 48 -26
34 -4 -3 5 -9 7 -14 4 -5 -3 -17 5 -27 18 -17 22 -20 22 -33 9z"/>
<path d="M4605 3630 c12 -19 13 -42 1 -57 -8 -13 -7 -14 14 -17 6 0 15 -8 20
-16 8 -12 9 -11 7 7 -2 11 -9 28 -16 37 -7 8 -10 19 -7 24 3 6 -2 16 -11 23
-15 12 -16 12 -8 -1z m29 -58 c3 -5 -1 -9 -9 -9 -8 0 -12 4 -9 9 3 4 7 8 9 8
2 0 6 -4 9 -8z"/>
<path d="M4590 3877 c0 -5 7 -6 16 -3 10 4 13 2 8 -6 -4 -6 -3 -8 4 -4 6 3 14
1 18 -5 4 -8 3 -9 -4 -5 -8 5 -10 1 -6 -11 6 -16 5 -15 -9 2 -13 16 -17 17
-31 6 -9 -7 -14 -17 -11 -21 3 -5 1 -11 -4 -14 -9 -6 -26 10 -33 29 -1 5 -11
10 -20 10 -14 1 -15 -2 -5 -19 15 -27 15 -39 2 -49 -6 -6 -4 -7 6 -4 13 4 16
-2 14 -34 -1 -21 2 -36 6 -33 5 3 6 11 2 17 -3 7 3 4 14 -5 19 -17 19 -17 18
15 -1 17 -7 31 -13 30 -5 -1 -13 4 -16 13 -3 9 -2 12 5 9 5 -4 19 5 31 20 21
28 37 24 42 -11 2 -12 11 -19 24 -19 12 0 21 -3 20 -6 -2 -3 3 -13 10 -22 12
-14 11 -19 -4 -34 -10 -10 -27 -18 -38 -18 -15 0 -20 -6 -20 -25 0 -18 5 -25
19 -25 37 0 48 -15 29 -36 -16 -18 -16 -20 1 -39 10 -11 14 -20 10 -20 -5 0 0
-6 11 -14 13 -10 21 -11 26 -3 5 8 10 7 21 -1 7 -7 17 -8 21 -4 4 4 13 -1 21
-11 11 -15 37 -18 65 -7 3 2 8 2 12 1 3 0 5 7 3 17 -2 9 -4 21 -4 25 -1 5 -5
6 -10 3 -4 -3 -16 3 -26 14 -15 17 -16 22 -4 37 7 10 9 15 5 11 -5 -4 -16 -2
-24 5 -13 10 -14 9 -7 -3 8 -13 7 -13 -8 -1 -9 7 -17 10 -17 5 0 -5 -4 -3 -9
5 -6 9 -11 10 -15 2 -4 -6 -3 -11 2 -11 5 0 9 -7 9 -15 0 -8 -5 -11 -11 -8 -6
4 -5 -1 3 -11 13 -15 13 -19 0 -27 -8 -5 -19 -7 -26 -4 -6 2 -13 -1 -16 -8 -2
-6 -6 -3 -10 7 -5 12 -3 15 6 10 9 -6 9 -5 0 7 -6 8 -10 24 -8 34 2 11 4 24 4
28 1 5 5 6 10 2 5 -3 12 -1 16 5 4 6 11 7 17 4 7 -5 8 -2 3 5 -4 8 5 6 21 -4
l29 -18 -25 24 c-14 13 -21 21 -16 17 14 -11 26 -10 26 3 0 5 -4 8 -9 4 -5 -3
-13 0 -17 6 -4 7 -3 9 4 5 7 -4 10 1 7 14 -2 11 1 20 7 20 5 0 8 -6 5 -13 -3
-8 1 -14 8 -14 7 0 11 7 8 16 -3 12 -2 11 7 -2 6 -9 15 -15 20 -12 5 3 12 0
16 -6 5 -8 3 -9 -5 -4 -10 6 -11 3 -2 -14 7 -11 17 -21 24 -21 8 0 8 -3 -2 -9
-9 -6 -10 -11 -2 -15 6 -4 11 -3 11 3 0 5 9 8 20 6 13 -3 18 0 14 7 -4 7 -2 8
5 4 6 -4 10 -10 8 -14 -2 -4 7 -17 19 -29 14 -12 24 -17 27 -10 2 6 6 4 9 -5
9 -22 -18 -17 -35 6 -12 16 -13 16 -13 -3 0 -11 3 -18 6 -16 4 2 7 -2 7 -10 0
-8 -4 -12 -8 -9 -4 2 -10 0 -13 -5 -11 -17 12 -22 27 -6 9 8 21 15 27 15 17 0
132 119 125 129 -3 5 2 12 11 15 8 3 12 10 9 16 -3 5 0 10 7 10 10 0 9 3 -2
10 -12 8 -12 10 3 16 10 4 16 12 13 20 -3 7 0 15 7 18 8 3 7 5 -2 5 -11 1 -10
5 5 16 16 13 16 14 2 9 -10 -3 -18 -1 -18 5 0 6 6 11 14 11 7 0 16 10 19 23 5
20 5 20 -7 5 -15 -21 -27 -23 -24 -6 2 8 -12 12 -39 13 -24 1 -43 -3 -43 -8 0
-5 7 -7 15 -4 8 4 17 2 20 -3 4 -6 11 -10 16 -10 6 0 7 5 3 12 -4 7 -3 8 5 4
6 -4 9 -11 7 -15 -3 -4 -1 -13 4 -21 5 -9 4 -20 -3 -29 -7 -9 -7 -12 -1 -8 6
3 11 0 11 -8 0 -8 -2 -13 -5 -10 -3 2 -13 0 -24 -6 -12 -7 -17 -17 -13 -29 3
-10 1 -21 -5 -25 -5 -3 -10 -1 -10 4 0 6 -5 11 -11 11 -8 0 -7 -6 2 -17 8 -10
9 -14 2 -10 -6 4 -15 2 -19 -4 -4 -7 -3 -10 2 -6 5 3 10 -8 10 -24 l2 -28 -19
22 c-10 12 -18 17 -19 12 0 -6 5 -16 12 -23 14 -14 15 -13 -34 -16 -26 -2 -44
4 -60 18 -13 12 -19 18 -14 14 14 -11 26 -10 26 3 0 5 -4 8 -9 4 -5 -3 -13 0
-17 6 -4 7 -3 9 4 5 7 -4 10 1 7 14 -2 11 1 20 7 20 5 0 7 -8 4 -17 -5 -15 -4
-15 9 1 11 14 15 16 15 5 0 -12 2 -12 10 1 9 13 10 13 10 0 0 -13 2 -13 9 0 6
8 7 18 4 24 -4 5 0 6 8 1 11 -7 12 -6 2 7 -7 8 -9 19 -5 23 4 5 2 5 -5 1 -6
-3 -15 -1 -19 5 -5 8 -3 9 7 4 12 -7 4 5 -30 45 -2 3 -1 -4 3 -15 4 -11 4 -16
0 -12 -4 4 -13 2 -21 -4 -9 -9 -13 -8 -13 0 0 6 5 11 10 11 6 0 10 5 10 11 0
8 -5 7 -15 -1 -9 -7 -14 -19 -11 -27 4 -9 1 -11 -7 -7 -9 6 -9 4 -1 -7 17 -23
12 -72 -9 -75 -11 -1 -15 2 -10 9 4 7 -1 6 -10 -2 -15 -12 -21 -9 -18 12 0 4
-4 7 -10 7 -6 0 -8 -7 -5 -16 3 -9 2 -12 -5 -9 -6 4 -8 14 -5 24 5 12 2 11 -9
-3 -8 -11 -15 -15 -15 -10 0 6 5 15 12 22 28 28 13 49 -20 28 -8 -4 -11 -3
-10 5 2 6 -7 12 -19 14 -13 1 -21 0 -18 -3 2 -2 -3 -18 -11 -34 -9 -17 -12
-28 -6 -25 5 4 9 0 9 -8 0 -12 -4 -12 -19 2 -17 15 -18 19 -4 29 9 6 13 14 9
17 -3 4 -12 2 -19 -4 -18 -15 -12 13 9 42 10 13 15 17 11 9 -7 -12 -5 -13 8
-3 8 7 19 9 24 5 16 -13 -20 33 -43 55 -13 12 -23 18 -23 13 0 -6 -5 -10 -11
-10 -5 0 -8 4 -5 8 2 4 -15 8 -40 8 -24 0 -44 -4 -44 -9z m73 -16 c-4 -14 14
-15 22 -1 7 11 42 -8 50 -28 2 -7 1 -10 -5 -7 -5 3 -17 -6 -26 -20 -11 -16
-20 -22 -28 -16 -6 4 -18 7 -28 6 -12 -2 -15 4 -13 21 1 14 5 27 9 31 3 3 1
12 -5 19 -7 9 -6 12 8 9 10 -1 17 -8 16 -14z m-126 -18 c-4 -3 0 -14 8 -23 13
-14 13 -17 0 -17 -8 0 -12 4 -9 8 2 4 0 10 -6 14 -10 6 -5 25 7 25 4 0 3 -3 0
-7z m418 -51 c-3 -3 1 -12 7 -20 20 -23 17 -39 -6 -38 -11 1 -26 5 -33 9 -21
13 -5 54 22 54 8 0 13 -3 10 -5z m-176 -19 c-3 -20 2 -24 15 -14 9 8 16 8 20
2 7 -10 -10 -24 -31 -27 -7 -1 -16 2 -19 8 -4 6 -10 5 -15 -3 -6 -9 -9 -10 -9
-2 0 6 7 19 16 27 17 17 25 20 23 9z m312 -6 c-6 -8 -9 -17 -6 -21 3 -3 -1 -1
-7 4 -10 9 -10 13 2 20 21 13 24 12 11 -3z m-365 -82 c-4 -27 -40 -42 -61 -26
-5 5 -18 7 -28 6 -9 -2 -15 1 -11 6 3 5 10 6 16 3 8 -5 9 -1 5 10 -4 9 -3 15
2 12 4 -3 16 3 26 14 17 18 20 19 36 4 9 -8 16 -22 15 -29z m351 34 c-9 -6
-15 -14 -12 -18 2 -5 -2 -14 -9 -20 -11 -10 -14 -9 -12 2 3 20 26 47 40 47 6
0 3 -5 -7 -11z m-193 -30 c-2 -5 9 -18 27 -31 33 -24 84 -31 109 -14 8 6 4 -2
-9 -16 -13 -15 -28 -25 -32 -22 -5 3 -9 -1 -9 -8 0 -8 -5 -6 -11 5 -6 9 -14
15 -19 12 -5 -3 -18 9 -30 25 -15 21 -26 28 -34 21 -7 -6 -17 -5 -30 4 -23 17
-15 31 18 31 13 0 23 -3 20 -7z m-90 -72 c4 4 4 0 1 -8 -4 -11 4 -25 23 -41
20 -17 25 -27 17 -33 -19 -17 -37 -16 -56 1 -10 9 -22 13 -28 10 -5 -4 -13 -1
-17 5 -4 7 -3 9 2 6 6 -3 15 3 22 14 7 10 8 19 3 19 -8 0 -8 8 -2 39 1 2 7 -2
14 -8 8 -6 17 -8 21 -4z m-118 -17 c0 -12 -4 -16 -9 -11 -5 5 -6 14 -3 20 10
15 12 14 12 -9z"/>
<path d="M4677 3843 c-14 -14 -17 -15 -17 -3 -1 11 -4 10 -11 -3 -8 -14 -8
-22 0 -30 6 -6 11 -7 11 -3 0 5 6 4 13 -2 9 -7 17 -4 29 13 14 19 15 25 5 34
-10 8 -18 6 -30 -6z m19 -21 c-8 -9 -19 -13 -22 -9 -10 9 16 38 28 31 6 -4 4
-13 -6 -22z"/>
<path d="M4928 3783 c-9 -18 -2 -36 14 -39 26 -3 30 11 9 30 -11 10 -21 14
-23 9z m21 -16 c8 -10 7 -14 -2 -14 -8 0 -14 6 -14 14 0 7 1 13 2 13 2 0 8 -6
14 -13z"/>
<path d="M4676 3701 c-21 -24 -13 -42 16 -37 24 3 32 30 14 46 -9 7 -18 5 -30
-9z m30 -14 c1 -7 -7 -14 -17 -14 -22 -2 -24 8 -7 25 13 13 21 9 24 -11z"/>
<path d="M4851 3674 c6 -7 16 -11 21 -8 11 7 3 17 -18 20 -12 2 -13 -1 -3 -12z"/>
<path d="M4956 3619 c4 -8 30 -6 38 2 3 3 -5 5 -19 5 -13 0 -22 -3 -19 -7z"/>
<path d="M4768 3604 c7 -14 8 -24 1 -31 -6 -6 -2 -16 12 -29 16 -14 23 -15 26
-6 3 6 10 9 16 6 7 -4 -1 8 -18 27 -16 19 -34 39 -39 44 -4 6 -4 1 2 -11z m36
-56 c-3 -5 -12 -4 -20 3 -7 6 -11 15 -8 21 3 5 12 4 20 -3 7 -6 11 -15 8 -21z"/>
<path d="M4710 3884 c0 -1 13 -16 30 -34 16 -18 27 -36 24 -41 -3 -5 -9 -7
-12 -5 -4 2 -18 -3 -30 -13 -22 -16 -22 -17 -3 -18 11 -1 20 4 18 10 -1 7 6
11 16 9 9 -2 17 2 17 8 0 5 5 10 10 10 6 0 9 -5 8 -11 -4 -14 59 -21 68 -8 3
5 10 7 15 3 5 -3 19 6 30 20 11 15 25 23 31 20 6 -4 9 -1 6 7 -3 8 -12 13 -21
13 -9 -1 -15 1 -13 5 3 4 1 13 -5 21 -6 11 -9 12 -9 2 0 -8 -5 -10 -12 -5 -11
6 -168 13 -168 7z m53 -24 c4 0 6 4 3 8 -6 10 51 9 60 -1 11 -10 26 -8 20 2
-5 8 15 8 34 1 3 -1 8 -2 13 -1 4 0 6 -5 5 -11 -2 -7 4 -12 12 -10 10 2 6 -6
-9 -22 -14 -14 -27 -24 -29 -21 -3 3 -11 0 -19 -7 -10 -8 -17 -7 -29 8 -11 14
-14 15 -11 3 3 -9 -1 -16 -8 -16 -7 0 -12 7 -11 16 1 9 -5 16 -11 16 -7 0 -13
4 -13 8 1 4 -7 16 -17 25 -10 9 -14 14 -9 10 6 -5 14 -8 19 -8z"/>
<path d="M4779 3866 c-6 -7 -5 -35 1 -31 5 3 11 1 15 -5 4 -6 10 -8 15 -5 4 3
13 -2 20 -10 10 -12 16 -13 26 -4 8 6 14 8 14 4 0 -4 7 -2 15 5 14 12 14 15
-1 31 -13 14 -20 16 -30 8 -7 -6 -19 -7 -26 -3 -10 6 -45 13 -49 10z m49 -25
c3 -9 9 -8 22 4 15 14 18 14 30 0 7 -8 10 -15 6 -15 -15 0 -22 -2 -33 -11 -8
-7 -16 -3 -26 11 -9 13 -16 17 -19 10 -3 -9 -7 -8 -16 2 -10 12 -8 14 10 13
12 -1 24 -7 26 -14z"/>
<path d="M4849 3833 c-12 -16 -12 -17 2 -6 9 7 20 9 24 5 5 -4 5 -1 1 6 -9 16
-11 15 -27 -5z"/>
<path d="M4910 3883 c0 -9 53 -53 58 -48 4 3 0 10 -8 15 -9 6 -10 10 -3 10 18
0 27 -20 14 -33 -8 -8 -5 -17 11 -34 12 -13 18 -23 14 -23 -5 0 -3 -7 4 -15
10 -12 8 -18 -6 -32 -10 -10 -27 -18 -38 -18 -15 0 -20 -6 -20 -25 0 -21 4
-24 36 -25 29 -1 35 1 27 11 -17 20 -1 38 19 22 15 -11 15 -11 5 3 -7 9 -9 19
-5 23 4 4 7 13 7 19 0 7 8 11 17 11 9 -1 14 4 12 11 -3 7 5 20 18 29 12 9 19
16 14 16 -5 0 -3 6 3 14 10 11 7 19 -10 35 -12 11 -27 18 -32 14 -6 -3 -16 2
-24 12 -9 14 -13 15 -13 4 0 -12 -2 -12 -10 1 -9 13 -10 13 -10 0 0 -13 -1
-13 -10 0 -6 10 -10 11 -10 3 0 -7 -5 -13 -11 -13 -5 0 -8 4 -5 8 2 4 -6 8
-20 8 -13 0 -24 -1 -24 -3z m118 -26 c6 -5 16 -6 20 -3 5 3 16 -3 24 -14 15
-17 15 -19 1 -24 -9 -4 -13 -9 -9 -13 11 -11 -25 -42 -42 -36 -11 5 -13 3 -7
-7 5 -9 4 -11 -4 -6 -6 4 -9 12 -5 17 3 6 -4 17 -15 26 -17 12 -20 18 -10 29
8 10 9 18 0 27 -9 11 -6 14 12 13 12 -1 28 -5 35 -9z m-27 -151 c-13 -14 -21
-28 -18 -33 3 -5 -5 -9 -18 -9 -13 0 -21 4 -19 8 3 5 10 5 16 2 8 -5 9 -1 5
10 -4 9 -3 15 2 12 4 -3 16 3 26 14 10 11 20 20 23 20 3 0 -5 -11 -17 -24z"/>
<path d="M4996 3849 c3 -6 1 -16 -5 -23 -8 -9 -3 -18 18 -34 25 -18 31 -19 41
-7 7 8 9 15 5 15 -4 0 -3 6 3 13 7 8 7 18 2 27 -8 12 -10 12 -10 1 0 -11 -3
-11 -16 0 -19 16 -47 21 -38 8z m59 -22 c5 5 3 0 -4 -9 -7 -10 -10 -18 -7 -18
4 0 4 -5 1 -10 -5 -8 -11 -7 -21 1 -11 9 -11 15 -3 25 14 17 -2 18 -20 2 -11
-11 -11 -9 0 9 12 20 15 21 29 8 9 -8 21 -12 25 -8z"/>
<path d="M5025 3811 c-3 -5 -2 -12 3 -15 5 -3 9 1 9 9 0 17 -3 19 -12 6z"/>
<path d="M7689 3873 c-7 -7 -6 -14 1 -18 6 -4 9 -14 6 -24 -5 -13 -4 -13 8 2
12 15 14 16 20 2 3 -8 11 -14 18 -13 7 2 12 -5 10 -14 -2 -10 3 -18 9 -18 7 0
9 3 6 7 -4 3 1 15 10 26 11 12 12 17 4 12 -10 -6 -12 -4 -6 5 5 8 4 11 -2 7
-5 -3 -10 0 -10 8 0 8 5 11 10 8 6 -4 7 -1 2 8 -6 11 -5 12 6 2 16 -16 33 -17
23 -1 -4 7 -3 8 5 4 6 -4 8 -12 5 -18 -5 -7 -2 -8 7 -2 10 6 9 1 -3 -17 -9
-15 -13 -31 -9 -38 6 -10 10 -8 15 4 3 9 12 15 19 12 8 -3 14 1 14 8 0 7 -6
11 -14 8 -7 -3 -13 0 -13 7 0 6 4 9 9 6 15 -9 31 18 21 34 -7 11 -10 12 -10 2
0 -8 -5 -10 -12 -5 -20 12 -138 10 -149 -4z m66 -13 c-1 -8 3 -22 9 -30 9 -13
9 -13 -5 -3 -9 7 -19 10 -22 6 -4 -3 -7 -1 -7 5 0 7 5 12 11 12 5 0 7 5 4 10
-4 7 -12 7 -25 0 -10 -6 -21 -6 -24 -1 -8 12 -1 16 32 16 21 1 29 -4 27 -15z
m100 8 c5 4 5 1 1 -6 -6 -10 -11 -10 -22 -1 -8 6 -14 14 -14 16 0 3 6 0 13 -6
8 -6 18 -7 22 -3z"/>
<path d="M7870 3877 c0 -5 7 -6 16 -3 10 4 13 2 8 -7 -6 -9 -4 -9 7 -1 16 13
51 15 43 3 -2 -5 -12 -5 -22 -2 -15 6 -16 5 -2 -12 8 -10 14 -20 13 -22 -8 -9
-2 -23 7 -18 6 4 8 10 5 15 -7 11 5 40 17 40 5 0 6 -5 2 -12 -4 -7 -3 -8 4 -4
7 4 10 -1 7 -14 -2 -11 0 -18 6 -15 5 4 6 11 3 17 -5 7 -2 8 6 3 9 -6 11 -4 5
6 -7 11 -5 11 10 -1 15 -12 17 -12 10 -1 -5 10 -4 12 4 7 7 -4 10 -2 9 5 -2 6
4 14 12 16 13 4 13 3 0 -6 -8 -6 -13 -11 -10 -12 3 0 13 -2 23 -4 9 -2 17 1
17 6 0 5 5 9 10 9 6 0 9 -3 9 -7 -1 -5 -1 -15 0 -23 1 -13 2 -13 11 0 5 8 10
10 10 4 0 -6 7 -11 16 -11 15 0 15 1 0 12 -8 7 -13 15 -9 18 3 4 12 -1 20 -11
11 -15 12 -15 7 -1 -3 10 -1 20 5 24 7 3 8 0 5 -9 -8 -20 10 -21 26 -1 7 8 18
15 24 15 6 0 4 -5 -4 -10 -13 -9 -7 -14 12 -11 4 0 5 -6 1 -15 -3 -9 -9 -11
-12 -6 -9 14 -28 -10 -25 -31 1 -10 -2 -14 -8 -11 -7 5 -8 2 -3 -7 7 -12 5
-12 -6 -1 -12 11 -12 14 1 22 9 6 10 10 3 10 -20 0 -26 -20 -11 -38 12 -16 11
-16 -7 -2 -19 14 -19 14 -6 -2 7 -10 17 -16 21 -13 4 3 11 -2 14 -10 3 -9 -1
-18 -9 -21 -8 -4 -12 -10 -9 -16 3 -5 11 -5 19 2 9 8 15 8 20 0 7 -12 8 -11
-27 -14 -16 -2 -25 1 -21 7 3 6 1 7 -6 3 -6 -4 -8 -12 -5 -18 4 -6 -1 -6 -14
1 -14 7 -23 8 -27 1 -3 -5 -1 -10 4 -10 6 0 11 -5 11 -11 0 -8 -5 -8 -15 1 -8
7 -12 17 -8 24 4 6 -1 5 -10 -3 -9 -7 -14 -18 -10 -24 4 -6 1 -7 -8 -2 -8 5
-5 -2 6 -16 l20 -24 -22 19 c-13 10 -20 23 -17 27 3 5 0 9 -6 9 -7 0 -10 -7
-6 -17 5 -15 4 -15 -9 1 -8 11 -15 14 -15 7 0 -7 -5 -9 -11 -5 -6 3 -7 9 -3
13 14 10 16 34 3 25 -8 -5 -9 -3 -4 7 7 11 5 11 -11 -1 -18 -14 -18 -14 -3 5
9 11 14 26 12 33 -3 6 0 12 7 12 6 0 9 -4 5 -9 -3 -5 0 -13 6 -17 8 -5 9 -3 4
7 -8 12 -6 12 8 0 14 -11 20 -11 35 0 16 13 16 13 2 -6 -14 -19 -14 -19 5 -5
19 14 19 14 5 -5 -14 -19 -14 -19 4 -5 14 11 18 11 12 2 -7 -11 -4 -12 12 -3
12 6 24 17 28 24 5 8 2 7 -9 -2 -10 -8 -20 -11 -24 -7 -3 3 -1 6 6 6 7 0 9 5
5 11 -5 8 -9 8 -14 -1 -5 -9 -9 -9 -14 -1 -4 6 -1 11 6 11 10 0 9 3 -2 10 -9
6 -20 5 -29 -3 -12 -9 -13 -9 -7 1 4 6 2 12 -3 12 -6 0 -11 -4 -11 -10 0 -5
-5 -10 -11 -10 -5 0 -7 5 -3 11 5 8 1 8 -13 0 -18 -9 -20 -7 -17 14 3 32 0 31
-22 -2 -17 -27 -17 -28 2 -13 17 13 18 13 8 0 -14 -18 -14 -51 -1 -43 6 3 7 1
3 -6 -4 -6 -12 -9 -17 -6 -5 4 -9 1 -9 -4 0 -6 6 -11 13 -11 7 0 8 -3 2 -8
-15 -10 -18 -35 -4 -26 8 5 9 3 4 -6 -5 -8 -4 -11 1 -7 6 3 11 -4 11 -16 2
-15 0 -18 -6 -8 -6 9 -11 10 -15 2 -4 -6 -2 -11 4 -11 6 0 8 -5 5 -11 -5 -6
-13 -3 -22 10 -8 12 -20 18 -26 14 -7 -3 -3 4 8 17 11 13 14 20 6 15 -10 -6
-12 -4 -6 5 6 9 4 11 -5 5 -9 -5 -11 -4 -6 4 4 6 4 11 -1 10 -19 -3 -25 2 -14
15 9 11 8 15 -6 20 -14 6 -15 9 -3 16 12 7 12 11 -1 26 -12 15 -12 16 0 9 10
-6 12 -4 6 5 -6 9 -4 11 6 6 8 -4 4 1 -8 12 -19 17 -20 21 -7 26 8 3 12 11 9
16 -11 18 -30 5 -30 -21 0 -18 -5 -23 -20 -21 -14 2 -9 -4 13 -17 17 -12 32
-23 32 -26 0 -3 -11 2 -24 10 -14 9 -30 15 -38 14 -26 -3 -36 1 -34 16 1 8 5
18 9 21 12 12 8 21 -10 29 -14 5 -15 4 -6 -6 10 -10 10 -16 -1 -28 -14 -16
-16 -20 -16 -42 0 -5 -5 -7 -12 -3 -7 5 -8 3 -3 -6 5 -8 -1 -20 -16 -33 l-24
-19 28 16 c15 9 28 14 28 11 1 -3 2 -13 4 -22 3 -32 16 -52 50 -77 27 -21 32
-22 31 -8 0 9 5 16 12 14 8 -1 11 2 8 7 -11 16 11 22 24 6 7 -8 9 -15 4 -15
-5 0 4 -11 21 -24 27 -21 28 -25 15 -42 -14 -17 -13 -18 1 -6 13 10 18 10 28
-1 6 -8 8 -16 5 -20 -14 -14 48 2 65 17 17 15 19 15 36 -4 27 -30 38 -13 13
21 -17 23 -20 32 -10 38 7 4 12 14 10 21 -2 8 3 14 10 15 7 0 17 7 22 15 9 13
10 13 10 0 1 -12 2 -12 10 1 6 10 20 16 38 14 21 -2 29 2 29 14 0 9 -4 19 -10
22 -5 4 -6 12 -1 20 11 18 12 33 1 40 -9 6 33 78 46 79 5 0 5 -5 1 -12 -5 -7
-3 -8 5 -3 10 5 10 10 2 18 -14 14 -381 17 -381 4z m144 -6 c-8 -8 -34 -10
-38 -2 -3 4 6 7 19 7 14 0 22 -2 19 -5z m106 4 c0 -2 -6 -8 -13 -14 -10 -8
-14 -7 -14 2 0 8 6 14 14 14 7 0 13 -1 13 -2z m-230 -69 c0 -3 -4 -8 -10 -11
-5 -3 -10 -1 -10 4 0 6 5 11 10 11 6 0 10 -2 10 -4z m303 -31 c4 -8 1 -17 -5
-21 -7 -4 -8 -3 -4 4 4 7 2 12 -4 12 -6 0 -8 5 -5 10 8 14 12 13 18 -5z m-325
-9 c7 -4 10 -11 7 -16 -3 -5 -1 -11 5 -15 17 -11 11 -28 -7 -21 -10 4 -4 -6
13 -21 16 -15 22 -22 13 -15 -15 12 -21 11 -40 -7 -25 -23 -41 -19 -32 7 6 15
5 16 -12 2 -10 -8 -16 -10 -12 -4 4 7 1 14 -7 17 -8 3 -13 14 -11 24 1 10 -2
23 -7 30 -5 7 -7 16 -4 21 6 10 77 9 94 -2z m192 -1 c-14 -17 -30 -20 -30 -4
0 5 4 8 9 4 5 -3 12 -1 16 5 3 5 9 10 12 10 3 0 0 -7 -7 -15z m-76 -11 c3 -8
2 -12 -4 -9 -6 3 -10 10 -10 16 0 14 7 11 14 -7z m3 -58 c-3 -8 1 -20 9 -26 8
-7 14 -9 14 -5 0 4 7 2 15 -5 8 -7 15 -9 15 -5 0 4 7 2 15 -5 19 -16 10 -31
-13 -23 -15 6 -15 5 -2 -11 13 -16 12 -20 -9 -37 -29 -24 -34 -24 -56 1 -17
18 -17 21 -2 38 16 18 17 37 4 60 -5 6 -5 17 -2 22 9 15 18 12 12 -4z m98 -15
c3 -5 2 -12 -3 -15 -5 -3 -9 1 -9 9 0 17 3 19 12 6z m0 -101 l20 -25 -22 19
c-13 11 -23 24 -23 29 0 6 1 8 3 6 1 -2 11 -15 22 -29z"/>
<path d="M7781 3763 c-1 -7 7 -17 17 -22 9 -6 12 -11 6 -11 -12 0 -15 -29 -2
-31 4 -1 13 -3 18 -4 6 -1 15 -3 21 -4 8 -1 7 -7 -2 -18 -11 -15 -10 -15 9 1
17 15 19 22 11 33 -11 12 -5 17 15 14 5 -1 4 4 -2 12 -7 8 -8 18 -4 22 4 5 1
5 -5 1 -7 -4 -13 -3 -13 1 0 5 -11 9 -24 9 -14 0 -22 -4 -20 -8 3 -4 1 -8 -5
-8 -5 0 -12 6 -14 13 -4 9 -6 9 -6 0z m67 -37 c-15 -11 -15 -13 0 -24 13 -9
11 -9 -10 0 -25 10 -28 19 -19 56 1 1 11 -3 23 -9 19 -10 20 -13 6 -23z"/>
<path d="M7823 3735 c0 -7 6 -11 14 -8 7 3 13 6 13 8 0 2 -6 5 -13 8 -8 3 -14
-1 -14 -8z"/>
<path d="M7996 3649 c3 -5 10 -7 15 -4 5 4 9 1 9 -4 0 -6 -6 -11 -14 -11 -7 0
-19 -7 -26 -16 -11 -12 -10 -18 4 -32 15 -15 18 -15 26 -2 5 8 10 11 10 6 0
-6 5 -5 11 1 7 7 8 17 3 25 -5 7 -9 19 -9 27 0 8 -8 15 -18 17 -9 1 -15 -2
-11 -7z m32 -50 c3 -11 2 -12 -6 -1 -7 11 -11 10 -16 -4 -5 -12 -10 -14 -17
-7 -6 6 -8 16 -5 21 9 14 39 8 44 -9z"/>
<path d="M8283 3870 c2 -14 9 -26 15 -26 7 -1 16 -2 21 -3 5 0 -6 -17 -23 -36
-30 -32 -46 -72 -24 -59 5 3 18 -2 29 -12 19 -17 20 -17 13 1 -6 14 -4 17 8
13 8 -4 21 -2 29 3 11 7 10 11 -6 23 -11 8 -23 12 -27 10 -11 -7 -21 17 -11
27 5 5 20 11 33 14 32 6 63 36 50 49 -14 14 -40 16 -40 4 0 -6 6 -8 13 -5 8 3
14 -1 14 -8 0 -7 -7 -12 -16 -11 -9 1 -15 -5 -13 -12 2 -9 -4 -9 -21 3 -13 8
-27 12 -32 8 -4 -5 -6 -3 -2 2 3 6 1 17 -4 25 -7 11 -8 8 -6 -10z m41 -95 c5
0 10 -6 12 -13 1 -7 0 -8 -3 -2 -3 8 -9 8 -18 0 -9 -8 -15 -8 -20 0 -3 6 -12
7 -18 3 -7 -4 -6 0 2 10 7 9 18 14 25 10 6 -4 15 -8 20 -8z"/>
<path d="M8300 3882 c0 -14 37 -35 44 -24 2 4 1 14 -5 22 -7 12 -9 12 -9 1 0
-11 -3 -11 -15 -1 -10 8 -15 9 -15 2z"/>
<path d="M4415 3844 c3 -27 -10 -41 -21 -23 -5 8 -3 9 6 4 8 -5 11 -4 6 3 -16
27 -40 -13 -27 -46 0 -2 13 6 27 17 15 11 29 19 33 17 4 -3 7 3 8 13 1 9 -7
22 -17 29 -16 10 -18 8 -15 -14z"/>
<path d="M7902 3855 c4 -4 3 -14 -3 -21 -7 -9 -4 -16 11 -27 14 -10 17 -16 9
-19 -17 -6 -19 -49 -2 -55 11 -4 11 -7 1 -17 -7 -6 -11 -10 -9 -8 2 1 12 -5
22 -14 17 -15 18 -15 13 9 -2 14 0 29 6 32 7 4 7 12 0 25 -7 13 -7 21 0 25 6
4 8 11 5 16 -4 5 -1 9 6 9 7 0 9 3 6 6 -4 4 -12 2 -20 -4 -16 -14 -35 -2 -31
20 1 10 -3 21 -9 25 -7 3 -9 3 -5 -2z m40 -68 c-7 -8 -7 -18 -2 -27 12 -19 3
-31 -16 -23 -13 5 -13 8 -2 15 11 8 11 10 0 15 -10 4 -9 8 5 19 23 17 28 18
15 1z"/>
<path d="M8161 3841 c-27 -21 -68 -21 -81 -1 -8 13 -10 13 -10 0 0 -12 -2 -12
-9 -2 -7 11 -9 10 -14 -3 -5 -11 -3 -14 6 -9 8 5 7 2 -2 -9 -7 -9 -12 -17 -10
-18 2 0 12 -2 22 -4 10 -2 28 -12 39 -22 11 -10 22 -17 24 -15 15 9 14 -1 -1
-18 -24 -27 -12 -36 18 -14 l23 18 -25 22 -26 22 40 36 c42 39 45 47 6 17z
m-48 -26 c9 2 15 -1 11 -6 -3 -5 -10 -7 -15 -4 -11 7 -12 -7 -1 -21 4 -5 0 -2
-8 7 -9 9 -24 15 -33 13 -15 -2 -16 0 -6 12 7 9 16 11 23 5 6 -4 19 -7 29 -6z
m37 -69 c0 -2 -8 -10 -17 -17 -16 -13 -17 -12 -4 4 13 16 21 21 21 13z"/>
<path d="M7950 3840 c0 -5 5 -10 11 -10 5 0 7 5 4 10 -3 6 -8 10 -11 10 -2 0
-4 -4 -4 -10z"/>
<path d="M8030 3840 c0 -6 -8 -10 -17 -8 -12 2 -18 -4 -18 -16 0 -17 34 -34
36 -18 0 4 2 17 5 30 2 12 2 22 -1 22 -3 0 -5 -5 -5 -10z m-15 -19 c3 -5 2
-12 -3 -15 -5 -3 -9 1 -9 9 0 17 3 19 12 6z"/>
<path d="M4850 3777 c-8 -7 -16 -19 -18 -27 -2 -11 2 -9 13 4 13 18 14 17 10
-13 -2 -18 0 -29 6 -25 5 3 6 11 2 17 -3 7 3 4 14 -5 19 -17 19 -17 18 10 -1
15 -5 28 -9 29 -5 1 -12 6 -15 11 -4 7 -11 6 -21 -1z"/>
<path d="M4513 3755 c0 -8 4 -12 9 -9 4 3 8 9 8 15 0 5 -4 9 -8 9 -5 0 -9 -7
-9 -15z"/>
<path d="M4432 3730 c2 -8 -2 -14 -8 -13 -15 3 -10 -72 5 -91 8 -9 19 -16 26
-16 7 0 15 -7 19 -15 3 -8 11 -14 18 -13 7 2 12 -3 10 -10 -1 -8 2 -11 8 -7 5
3 10 0 10 -7 0 -10 3 -9 10 2 5 9 5 19 -2 28 -8 9 -8 16 0 24 8 8 13 7 18 -5
3 -9 9 -15 13 -12 4 2 8 -2 8 -10 0 -8 -4 -12 -8 -9 -12 7 -22 -17 -11 -28 12
-12 21 1 28 37 2 14 0 25 -6 25 -6 0 -9 4 -5 9 8 14 -9 21 -25 11 -9 -5 -20
-4 -29 3 -8 7 -24 12 -35 12 -16 0 -21 6 -21 25 -1 14 -6 24 -13 23 -16 -4
-16 14 1 20 9 4 9 7 -1 18 -11 12 -13 12 -10 -1z m15 -53 c0 -8 -6 -14 -14
-14 -9 0 -10 4 -2 14 6 7 12 13 14 13 1 0 2 -6 2 -13z m7 -36 c4 -5 14 -8 24
-6 21 3 44 -14 36 -27 -3 -5 -2 -15 3 -21 4 -7 0 -4 -9 6 -12 12 -18 15 -18 6
0 -7 -6 -5 -14 7 -8 10 -20 19 -27 19 -7 0 -14 6 -16 13 -5 14 13 17 21 3z"/>
<path d="M4474 3622 c4 -3 14 -7 22 -8 9 -1 13 0 10 4 -4 3 -14 7 -22 8 -9 1
-13 0 -10 -4z"/>
<path d="M8007 3727 c4 -7 8 -16 8 -21 0 -16 45 -13 57 3 7 9 8 13 4 9 -5 -4
-15 -3 -22 2 -19 16 -56 21 -47 7z"/>
<path d="M4775 3679 c1 -20 19 -43 36 -45 5 -1 12 -2 15 -3 4 0 1 -8 -6 -16
-10 -12 -10 -18 0 -30 7 -8 16 -12 21 -9 5 3 14 -6 21 -20 12 -27 34 -37 25
-12 -3 8 -3 17 1 20 11 11 12 46 2 46 -6 0 -9 3 -9 8 3 18 -2 22 -20 13 -14
-8 -22 -7 -31 4 -7 8 -9 15 -4 15 5 0 2 6 -7 13 -9 7 -16 16 -15 21 1 5 -6 10
-15 11 -10 2 -15 -4 -14 -16z m40 -21 c5 4 5 1 1 -6 -6 -10 -11 -10 -22 -1 -8
6 -14 14 -14 16 0 3 6 0 13 -6 8 -6 18 -7 22 -3z m53 -56 c2 -7 7 -10 12 -7 5
3 7 -3 5 -12 -2 -10 -4 -20 -4 -22 -1 -2 -10 4 -21 14 -11 10 -20 14 -20 10 0
-5 -5 -4 -11 2 -6 6 -8 16 -5 21 8 13 39 9 44 -6z"/>
<path d="M4850 3603 c0 -6 8 -17 18 -24 16 -13 16 -13 2 6 -8 11 -16 22 -17
24 -2 2 -3 0 -3 -6z"/>
<path d="M7936 3661 c-4 -5 -2 -12 3 -15 5 -4 12 -2 15 3 4 5 2 12 -3 15 -5 4
-12 2 -15 -3z"/>
<path d="M4710 3637 c-8 -7 -16 -19 -18 -28 -3 -20 23 -43 38 -34 16 10 0 27
-19 21 -14 -6 -15 -5 0 6 9 7 16 21 16 31 0 9 -1 17 -1 17 -1 0 -8 -6 -16 -13z"/>
<path d="M8179 3625 c0 0 -2 -7 -4 -16 -4 -21 19 -20 32 1 8 12 7 16 -8 16
-11 0 -19 0 -20 -1z"/>
<path d="M4530 3601 c0 -6 4 -13 10 -16 6 -3 7 1 4 9 -7 18 -14 21 -14 7z"/>
</g>
</svg>
